<svg width="234" height="233" xmlns="http://www.w3.org/2000/svg">
 <!-- Created with Method Draw - http://github.com/duopixel/Method-Draw/ -->
 <g>
  <title>background</title>
  <rect fill="none" id="canvas_background" height="235" width="236" y="-1" x="-1"/>
 </g>
 <g>
  <title>Layer 1</title>
  <g id="svg_45">
   <g id="svg_27">
    <g id="svg_25">
     <g id="svg_21">
      <g id="svg_19">
       <g id="svg_16">
        <g id="svg_13">
         <g id="svg_7">
          <ellipse stroke="#fe805d" ry="106.091514" rx="106.56862" id="svg_3" cy="116.668494" cx="118.107129" fill-opacity="null" stroke-width="14" fill="none"/>
          <line stroke="#fe805d" stroke-linecap="null" stroke-linejoin="null" id="svg_4" y2="55.514766" x2="83.953289" y1="164.57765" x1="20.923103" fill-opacity="null" stroke-opacity="null" stroke-width="14" fill="none"/>
          <line stroke="#fe805d" transform="rotate(0.786342442035675 183.52850341796534,108.95530700683567) " stroke-linecap="null" stroke-linejoin="null" id="svg_6" y2="56.272288" x2="152.271895" y1="161.63832" x1="214.785115" fill-opacity="null" stroke-opacity="null" stroke-width="14" fill="none"/>
         </g>
         <line stroke="#fe805d" stroke-linecap="null" stroke-linejoin="null" id="svg_8" y2="124.955231" x2="120.25607" y1="57.682803" x1="81.347157" fill-opacity="null" stroke-opacity="null" stroke-width="14" fill="none"/>
         <line transform="rotate(0.6139458417892456 137.3468933105473,88.59176635742227) " stroke="#fe805d" stroke-linecap="null" stroke-linejoin="null" id="svg_9" y2="122.409788" x2="118.437896" y1="54.77373" x1="156.255907" fill-opacity="null" stroke-opacity="null" stroke-width="14" fill="none"/>
        </g>
        <path stroke="#fe805d" id="svg_15" d="m86.518386,62.838294l-4.577198,-7.919987l-4.577198,7.919987l9.154397,0z" fill-opacity="null" stroke-opacity="null" stroke-width="10" fill="none"/>
       </g>
       <path stroke="#fe805d" id="svg_18" d="m153.680485,56.403914l0.910747,-1.639348l0.910747,1.639348l-1.821494,0z" fill-opacity="null" stroke-opacity="null" stroke-width="10" fill="none"/>
      </g>
      <path stroke="#fe805d" transform="rotate(-179.89459228515625 118.43760681152345,124.35812377929688) " id="svg_20" d="m116.889677,125.906387l1.547927,-3.096527l1.547927,3.096527l-3.095854,0z" fill-opacity="null" stroke-opacity="null" stroke-width="10" fill="none"/>
     </g>
     <line transform="rotate(1.1181780099868774 99.56823730468909,151.11734008789077) " stroke="#fe805d" stroke-linecap="null" stroke-linejoin="null" id="svg_22" y2="186.193591" x2="120.701136" y1="116.041078" x1="78.435337" fill-opacity="null" stroke-opacity="null" stroke-width="14" fill="none"/>
     <line transform="rotate(-119.30390930175781 138.13034057617188,150.02801513671875) " stroke="#fe805d" stroke-linecap="null" stroke-linejoin="null" id="svg_24" y2="185.104267" x2="159.263231" y1="114.951754" x1="116.997433" fill-opacity="null" stroke-opacity="null" stroke-width="14" fill="none"/>
    </g>
    <path stroke="#fe805d" transform="rotate(-179.67933654785156 118.59178161621092,181.67083740234375) " id="svg_26" d="m110.862439,188.323656l7.729337,-13.305644l7.729337,13.305644l-15.458675,0z" fill-opacity="null" stroke-opacity="null" stroke-width="10" fill="none"/>
   </g>
   <g id="svg_38">
    <path stroke="#fe805d" transform="rotate(149.50865173339844 83.41259765624999,117.45138549804688) " id="svg_34" d="m83.285558,117.297017l0,0.30874l0.25408,-0.30874l-0.25408,0z" fill-opacity="null" stroke-opacity="null" stroke-width="8" fill="none"/>
    <path stroke="#fe805d" id="svg_37" d="m80.458383,114.955559l0.782463,-1.251962l0.782463,1.251962l-1.564926,0z" fill-opacity="null" stroke-opacity="null" stroke-width="8" fill="none"/>
   </g>
   <g id="svg_44">
    <path stroke="#fe805d" transform="rotate(149.50865173339844 158.3733825683594,116.35592651367189) " id="svg_42" d="m158.246344,116.201561l0,0.30874l0.25408,-0.30874l-0.25408,0z" fill-opacity="null" stroke-opacity="null" stroke-width="8" fill="none"/>
    <path stroke="#fe805d" id="svg_43" d="m155.419164,113.860101l0.78247,-1.25196l0.78246,1.25196l-1.56493,0z" fill-opacity="null" stroke-opacity="null" stroke-width="8" fill="none"/>
   </g>
  </g>
 </g>
</svg>